<?xml version="1.0" encoding="UTF-8"?>
<svg xmlns="http://www.w3.org/2000/svg" viewBox="0 0 760 420" role="img" aria-label="控制台界面布局">
  <defs>
    <filter id="win" x="-5%" y="-5%" width="110%" height="110%">
      <feDropShadow dx="0" dy="3" stdDeviation="4" flood-opacity="0.12"/>
    </filter>
    <linearGradient id="tb" x1="0%" y1="0%" x2="0%" y2="100%">
      <stop offset="0%" stop-color="#f8fafc"/>
      <stop offset="100%" stop-color="#e2e8f0"/>
    </linearGradient>
  </defs>
  <rect width="760" height="420" rx="12" fill="#e2e8f0"/>
  <text x="380" y="32" text-anchor="middle" fill="#334155" font-family="system-ui,sans-serif" font-size="15" font-weight="700">教学控制台 — 界面分区示意</text>
  <g transform="translate(24 48)" filter="url(#win)">
    <rect width="712" height="348" rx="10" fill="#fff" stroke="#94a3b8" stroke-width="2"/>
    <rect width="712" height="36" rx="10" fill="url(#tb)"/>
    <rect y="24" width="712" height="12" fill="url(#tb)"/>
    <circle cx="22" cy="18" r="5" fill="#ef4444"/>
    <circle cx="42" cy="18" r="5" fill="#eab308"/>
    <circle cx="62" cy="18" r="5" fill="#22c55e"/>
    <text x="380" y="22" text-anchor="middle" fill="#64748b" font-family="system-ui,sans-serif" font-size="11">Robot Lab Console</text>
    <rect x="8" y="44" width="140" height="292" rx="6" fill="#f8fafc" stroke="#e2e8f0"/>
    <text x="78" y="66" text-anchor="middle" fill="#0f172a" font-family="system-ui,sans-serif" font-size="11" font-weight="700">导航</text>
    <rect x="16" y="76" width="124" height="26" rx="4" fill="#dbeafe" stroke="#3b82f6"/>
    <text x="24" y="93" fill="#1e40af" font-family="system-ui,sans-serif" font-size="10">任务 / 对话</text>
    <rect x="16" y="108" width="124" height="26" rx="4" fill="#fff" stroke="#e2e8f0"/>
    <text x="24" y="125" fill="#64748b" font-family="system-ui,sans-serif" font-size="10">Blockly</text>
    <rect x="16" y="140" width="124" height="26" rx="4" fill="#fff" stroke="#e2e8f0"/>
    <text x="24" y="157" fill="#64748b" font-family="system-ui,sans-serif" font-size="10">设备状态</text>
    <rect x="156" y="44" width="404" height="220" rx="6" fill="#fff" stroke="#cbd5e1"/>
    <text x="170" y="64" fill="#94a3b8" font-family="system-ui,sans-serif" font-size="10">主工作区 · 对话或积木画布</text>
    <rect x="170" y="76" width="376" height="100" rx="6" fill="#f1f5f9" stroke="#e2e8f0" stroke-dasharray="4 3"/>
    <text x="358" y="130" text-anchor="middle" fill="#64748b" font-family="system-ui,sans-serif" font-size="12">内容区域</text>
    <rect x="170" y="184" width="90" height="28" rx="4" fill="#0ea5e9"/>
    <text x="215" y="202" text-anchor="middle" fill="#fff" font-family="system-ui,sans-serif" font-size="10">运行</text>
    <rect x="268" y="184" width="90" height="28" rx="4" fill="#e2e8f0" stroke="#94a3b8"/>
    <text x="313" y="202" text-anchor="middle" fill="#475569" font-family="system-ui,sans-serif" font-size="10">停止</text>
    <rect x="366" y="184" width="100" height="28" rx="4" fill="#e2e8f0" stroke="#94a3b8"/>
    <text x="416" y="202" text-anchor="middle" fill="#475569" font-family="system-ui,sans-serif" font-size="10">单步</text>
    <rect x="568" y="44" width="136" height="160" rx="6" fill="#0f172a" stroke="#334155"/>
    <text x="636" y="64" text-anchor="middle" fill="#94a3b8" font-family="system-ui,sans-serif" font-size="9">相机预览</text>
    <rect x="580" y="72" width="112" height="84" rx="4" fill="#1e293b"/>
    <circle cx="636" cy="114" r="28" fill="#334155" stroke="#64748b" stroke-width="1"/>
    <rect x="580" y="164" width="112" height="20" rx="3" fill="#22c55e" opacity="0.85"/>
    <text x="636" y="178" text-anchor="middle" fill="#fff" font-family="system-ui,sans-serif" font-size="8">已连接</text>
    <rect x="156" y="272" width="548" height="64" rx="6" fill="#1e293b" stroke="#334155"/>
    <text x="170" y="292" fill="#94a3b8" font-family="ui-monospace,monospace" font-size="9">[12:01:02] plan OK</text>
    <text x="170" y="308" fill="#86efac" font-family="ui-monospace,monospace" font-size="9">[12:01:03] safety: within workspace</text>
    <text x="170" y="324" fill="#fcd34d" font-family="ui-monospace,monospace" font-size="9">[12:01:04] moving joint3...</text>
  </g>
</svg>